<?xml version="1.0" standalone="no"?>
<!DOCTYPE svg PUBLIC "-//W3C//DTD SVG 20010904//EN"
 "http://www.w3.org/TR/2001/REC-SVG-20010904/DTD/svg10.dtd">
<svg version="1.0" xmlns="http://www.w3.org/2000/svg"
 width="7084.000000pt" height="4500.000000pt" viewBox="0 0 7084.000000 4500.000000"
 preserveAspectRatio="xMidYMid meet">

<g transform="translate(0.000000,4500.000000) scale(0.100000,-0.100000)"
fill="#000000" stroke="none">
<path d="M28435 24843 c-214 -29 -383 -173 -451 -383 -15 -47 -18 -104 -22
-397 l-4 -343 896 0 896 0 0 -1785 0 -1785 565 0 565 0 2 1783 3 1782 893 3
892 2 0 333 c0 262 -3 345 -15 390 -46 177 -180 320 -354 380 l-66 22 -1885 1
c-1037 1 -1898 -1 -1915 -3z"/>
<path d="M34242 24839 c-17 -5 -46 -24 -63 -42 -25 -26 -483 -802 -521 -883
-8 -17 39 -106 307 -570 175 -302 323 -555 330 -562 10 -11 75 94 339 551
l326 564 -251 434 c-138 239 -261 445 -273 458 -45 51 -122 71 -194 50z"/>
<path d="M37500 22500 l0 -2350 303 0 c358 0 414 7 522 59 133 64 219 157 273
297 l27 69 5 1220 5 1220 774 -1029 c631 -839 776 -1025 786 -1014 7 7 349
461 760 1008 411 547 756 1004 766 1015 19 19 19 -6 19 -1175 0 -1316 -2
-1262 62 -1383 64 -119 168 -207 302 -256 70 -25 75 -25 419 -29 l347 -4 0
2352 0 2352 -462 -5 c-505 -4 -520 -6 -652 -66 -89 -40 -171 -99 -236 -167
-31 -33 -328 -421 -660 -864 -332 -443 -620 -826 -640 -851 l-37 -47 -654 870
c-405 539 -676 891 -712 924 -113 105 -263 174 -421 194 -44 5 -264 10 -488
10 l-408 0 0 -2350z"/>
<path d="M32515 21983 c-555 -984 -1015 -1798 -1024 -1811 l-14 -23 499 3
c474 4 503 5 577 26 164 45 334 165 420 295 19 28 298 528 620 1110 l585 1057
-325 563 c-179 309 -326 563 -328 565 -1 1 -456 -802 -1010 -1785z"/>
<path d="M34750 23213 c-178 -307 -323 -562 -323 -568 0 -20 1196 -2161 1236
-2214 108 -141 300 -247 489 -271 125 -15 972 -14 965 3 -8 21 -2027 3591
-2036 3600 -4 4 -153 -243 -331 -550z"/>
</g>
</svg>
